<svg width="1458" height="675" viewBox="0 0 1458 675" fill="none" xmlns="http://www.w3.org/2000/svg">
<rect width="1458" height="675" rx="118.125" fill="#376BF5"/>
<path d="M320.625 369.562C338.256 369.562 352.688 384.594 352.688 403.312C352.688 422.031 338.256 437.062 320.625 437.062C302.994 437.062 288.562 422.031 288.562 403.312C288.562 384.594 302.994 369.563 320.625 369.562Z" fill="white" stroke="white" stroke-width="3.375"/>
<path d="M469.125 264.938H492.75C503.002 264.938 511.312 273.248 511.312 283.5V349.312H450.562V283.5C450.562 273.248 458.873 264.938 469.125 264.938Z" fill="white" stroke="white" stroke-width="3.375"/>
<path d="M101.25 405L320.625 236.25L540 405" stroke="white" stroke-width="67.5" stroke-linecap="round"/>
<path d="M696.75 446.666C690.054 446.666 684.438 445.154 679.902 442.13C675.366 438.89 672.558 434.57 671.478 429.17C670.398 423.554 671.37 417.29 674.394 410.378L755.07 236.714C758.958 228.29 763.71 222.134 769.326 218.246C775.158 214.358 781.746 212.414 789.09 212.414C796.434 212.414 802.806 214.358 808.206 218.246C813.822 222.134 818.682 228.29 822.786 236.714L903.462 410.378C906.918 417.29 908.106 423.554 907.026 429.17C906.162 434.786 903.462 439.106 898.926 442.13C894.606 445.154 889.206 446.666 882.726 446.666C874.086 446.666 867.39 444.722 862.638 440.834C858.102 436.946 853.998 430.682 850.326 422.042L832.83 380.894L855.51 397.418H722.022L745.026 380.894L727.53 422.042C723.642 430.682 719.646 436.946 715.542 440.834C711.438 444.722 705.174 446.666 696.75 446.666ZM788.442 277.538L750.858 367.286L741.786 351.734H836.07L826.998 367.286L789.09 277.538H788.442ZM961.899 446.666C952.395 446.666 945.051 444.074 939.867 438.89C934.683 433.49 932.091 426.038 932.091 416.534V245.462C932.091 235.742 934.683 228.29 939.867 223.106C945.267 217.922 952.719 215.33 962.223 215.33H1041.93C1067.85 215.33 1087.83 222.026 1101.87 235.418C1116.12 248.594 1123.25 266.846 1123.25 290.174C1123.25 313.502 1116.12 331.862 1101.87 345.254C1087.83 358.43 1067.85 365.018 1041.93 365.018H991.707V416.534C991.707 426.038 989.223 433.49 984.255 438.89C979.287 444.074 971.835 446.666 961.899 446.666ZM991.707 319.334H1031.56C1042.79 319.334 1051.43 316.958 1057.48 312.206C1063.53 307.238 1066.55 299.894 1066.55 290.174C1066.55 280.238 1063.53 272.894 1057.48 268.142C1051.43 263.39 1042.79 261.014 1031.56 261.014H991.707V319.334ZM1228.49 446.666C1218.99 446.666 1211.65 444.074 1206.46 438.89C1201.28 433.49 1198.69 426.038 1198.69 416.534V263.93H1147.82C1139.83 263.93 1133.67 261.878 1129.35 257.774C1125.25 253.454 1123.19 247.406 1123.19 239.63C1123.19 231.638 1125.25 225.59 1129.35 221.486C1133.67 217.382 1139.83 215.33 1147.82 215.33H1309.17C1317.16 215.33 1323.21 217.382 1327.31 221.486C1331.63 225.59 1333.79 231.638 1333.79 239.63C1333.79 247.406 1331.63 253.454 1327.31 257.774C1323.21 261.878 1317.16 263.93 1309.17 263.93H1258.3V416.534C1258.3 426.038 1255.82 433.49 1250.85 438.89C1245.88 444.074 1238.43 446.666 1228.49 446.666Z" fill="white"/>
</svg>
