<svg width="432" height="200" viewBox="0 0 432 200" fill="none" xmlns="http://www.w3.org/2000/svg">
<rect width="432" height="200" rx="35" fill="white"/>
<path d="M95 109.5C100.224 109.5 104.5 113.954 104.5 119.5C104.5 125.046 100.224 129.5 95 129.5C89.776 129.5 85.5 125.046 85.5 119.5C85.5 113.954 89.776 109.5 95 109.5Z" fill="#376BF5" stroke="#376BF5"/>
<path d="M139 78.5H146C149.038 78.5 151.5 80.9624 151.5 84V103.5H133.5V84C133.5 81.0574 135.811 78.6542 138.717 78.5068L139 78.5Z" fill="#376BF5" stroke="#376BF5"/>
<path d="M30 120L95 70L160 120" stroke="#376BF5" stroke-width="20" stroke-linecap="round"/>
<path d="M206.444 132.864C204.46 132.864 202.796 132.416 201.452 131.52C200.108 130.56 199.276 129.28 198.956 127.68C198.636 126.016 198.924 124.16 199.82 122.112L223.725 70.656C224.877 68.16 226.285 66.336 227.949 65.184C229.677 64.032 231.629 63.456 233.805 63.456C235.981 63.456 237.869 64.032 239.469 65.184C241.133 66.336 242.573 68.16 243.789 70.656L267.693 122.112C268.717 124.16 269.069 126.016 268.749 127.68C268.493 129.344 267.693 130.624 266.349 131.52C265.069 132.416 263.469 132.864 261.549 132.864C258.989 132.864 257.005 132.288 255.597 131.136C254.253 129.984 253.037 128.128 251.949 125.568L246.765 113.376L253.485 118.272H213.933L220.749 113.376L215.564 125.568C214.413 128.128 213.229 129.984 212.012 131.136C210.797 132.288 208.941 132.864 206.444 132.864ZM233.613 82.752L222.476 109.344L219.789 104.736H247.725L245.037 109.344L233.805 82.752H233.613ZM285.007 132.864C282.191 132.864 280.015 132.096 278.479 130.56C276.943 128.96 276.175 126.752 276.175 123.936V73.248C276.175 70.368 276.943 68.16 278.479 66.624C280.079 65.088 282.287 64.32 285.103 64.32H308.719C316.399 64.32 322.319 66.304 326.479 70.272C330.703 74.176 332.815 79.584 332.815 86.496C332.815 93.408 330.703 98.848 326.479 102.816C322.319 106.72 316.399 108.672 308.719 108.672H293.839V123.936C293.839 126.752 293.103 128.96 291.631 130.56C290.159 132.096 287.951 132.864 285.007 132.864ZM293.839 95.136H305.647C308.975 95.136 311.535 94.432 313.327 93.024C315.119 91.552 316.015 89.376 316.015 86.496C316.015 83.552 315.119 81.376 313.327 79.968C311.535 78.56 308.975 77.856 305.647 77.856H293.839V95.136ZM363.998 132.864C361.182 132.864 359.006 132.096 357.47 130.56C355.934 128.96 355.166 126.752 355.166 123.936V78.72H340.094C337.726 78.72 335.902 78.112 334.622 76.896C333.406 75.616 332.798 73.824 332.798 71.52C332.798 69.152 333.406 67.36 334.622 66.144C335.902 64.928 337.726 64.32 340.094 64.32H387.902C390.27 64.32 392.062 64.928 393.278 66.144C394.558 67.36 395.198 69.152 395.198 71.52C395.198 73.824 394.558 75.616 393.278 76.896C392.062 78.112 390.27 78.72 387.902 78.72H372.83V123.936C372.83 126.752 372.094 128.96 370.622 130.56C369.15 132.096 366.942 132.864 363.998 132.864Z" fill="#376BF5"/>
</svg>
