<svg width="1024" height="1024" viewBox="0 0 1024 1024" fill="none" xmlns="http://www.w3.org/2000/svg">
<rect width="1024" height="1024" rx="179.2" fill="#376BF5"/>
<ellipse cx="512.001" cy="653.943" rx="55" ry="57.75" fill="white"/>
<path d="M545.534 338.099L721 473.072V458.693C721 440.468 735.775 425.693 754 425.693H792.5C810.725 425.693 825.5 440.468 825.5 458.693V553.456L903.034 613.099C927.111 631.619 931.615 666.151 913.095 690.228C894.574 714.304 860.042 718.808 835.966 700.288L512 451.083L188.034 700.288C163.958 718.808 129.426 714.304 110.905 690.228C92.3851 666.151 96.8894 631.619 120.966 613.099L478.466 338.099L512 312.304L545.534 338.099Z" fill="white"/>
</svg>
